<svg width="16" height="9" viewBox="0 0 16 9" fill="none" xmlns="http://www.w3.org/2000/svg">
<path d="M15.6474 0.344223C15.4216 0.123817 15.1154 0 14.7961 0C14.4768 0 14.1706 0.123817 13.9448 0.344223L7.98465 6.16323L2.0245 0.344223C1.7963 0.13682 1.4946 0.0239191 1.18288 0.0292768C0.871156 0.0346346 0.573713 0.157831 0.353136 0.372948C0.132559 0.588064 0.00604343 0.878327 0.000211716 1.18266C-0.00562096 1.487 0.109685 1.78168 0.321866 2.0047L7.13239 8.65578C7.35819 8.87618 7.66441 9 7.98371 9C8.303 9 8.60922 8.87618 8.83502 8.65578L15.6474 2.00653C15.8732 1.78608 16 1.48711 16 1.17538C16 0.863645 15.8732 0.564675 15.6474 0.344223Z" fill="#F6FBF2"/>
</svg>
