<svg width="24" height="32" viewBox="0 0 24 32" fill="none" xmlns="http://www.w3.org/2000/svg">
<path d="M13.2966 0.530627C12.9586 0.190867 12.5001 0 12.0222 0C11.5442 0 11.0857 0.190867 10.7477 0.530627L0.550317 10.783C0.378149 10.9502 0.240822 11.1502 0.146349 11.3713C0.0518754 11.5924 0.00214795 11.8302 6.80602e-05 12.0708C-0.00201183 12.3115 0.0435979 12.5501 0.134235 12.7729C0.224872 12.9956 0.358722 13.1979 0.527974 13.3681C0.697226 13.5383 0.898491 13.6728 1.12003 13.764C1.34156 13.8551 1.57893 13.901 1.81828 13.8989C2.05763 13.8968 2.29417 13.8468 2.51409 13.7518C2.73402 13.6568 2.93293 13.5187 3.09921 13.3456L10.2195 6.18692V30.1877C10.2195 30.6683 10.4095 31.1293 10.7475 31.4692C11.0856 31.8091 11.5441 32 12.0222 32C12.5002 32 12.9587 31.8091 13.2968 31.4692C13.6348 31.1293 13.8248 30.6683 13.8248 30.1877V6.18692L20.9451 13.3456C21.2851 13.6758 21.7404 13.8584 22.213 13.8543C22.6857 13.8502 23.1378 13.6596 23.472 13.3236C23.8062 12.9875 23.9958 12.533 23.9999 12.0578C24.004 11.5826 23.8223 11.1248 23.494 10.783L13.2966 0.530627Z" fill="#2D3229"/>
</svg>
