<svg width="32" height="24" viewBox="0 0 32 24" fill="none" xmlns="http://www.w3.org/2000/svg">
<path d="M31.4694 13.2966C31.8091 12.9586 32 12.5001 32 12.0222C32 11.5442 31.8091 11.0857 31.4694 10.7477L21.217 0.550317C21.0498 0.378149 20.8498 0.240821 20.6287 0.146348C20.4076 0.0518749 20.1698 0.00214743 19.9292 6.75325e-05C19.6885 -0.00201236 19.4499 0.0435973 19.2271 0.134234C19.0044 0.224871 18.8021 0.358721 18.6319 0.527973C18.4617 0.697226 18.3272 0.89849 18.236 1.12002C18.1449 1.34156 18.099 1.57893 18.1011 1.81828C18.1032 2.05763 18.1532 2.29417 18.2482 2.51409C18.3432 2.73402 18.4813 2.93293 18.6544 3.09921L25.8131 10.2195L1.81233 10.2195C1.33167 10.2195 0.870697 10.4095 0.530818 10.7475C0.19094 11.0856 -5.04607e-07 11.5441 -5.25505e-07 12.0221C-5.46403e-07 12.5002 0.19094 12.9587 0.530818 13.2968C0.870697 13.6348 1.33167 13.8248 1.81233 13.8248L25.8131 13.8248L18.6544 20.9451C18.3242 21.2851 18.1416 21.7404 18.1457 22.213C18.1498 22.6857 18.3404 23.1378 18.6764 23.472C19.0125 23.8062 19.467 23.9958 19.9422 23.9999C20.4174 24.004 20.8752 23.8223 21.217 23.494L31.4694 13.2966Z" fill="#61A039"/>
</svg>
