<svg width="32" height="18" viewBox="0 0 32 18" fill="none" xmlns="http://www.w3.org/2000/svg">
<path d="M0.705146 0.688446C1.15675 0.247635 1.76919 0 2.40778 0C3.04637 0 3.65881 0.247635 4.11041 0.688446L16.0307 12.3265L27.951 0.688446C28.4074 0.27364 29.0108 0.0478382 29.6342 0.0585537C30.2577 0.0692692 30.8526 0.315662 31.2937 0.745895C31.7349 1.17613 31.9879 1.75665 31.9996 2.36532C32.0112 2.97399 31.7806 3.56335 31.3563 4.00939L17.7352 17.3116C17.2836 17.7524 16.6712 18 16.0326 18C15.394 18 14.7816 17.7524 14.33 17.3116L0.705146 4.01307C0.253643 3.57216 0 2.97422 0 2.35076C0 1.72729 0.253643 1.12935 0.705146 0.688446Z" fill="#2D3229"/>
<path d="M0.705146 0.688446C1.15675 0.247635 1.76919 0 2.40778 0C3.04637 0 3.65881 0.247635 4.11041 0.688446L16.0307 12.3265L27.951 0.688446C28.4074 0.27364 29.0108 0.0478382 29.6342 0.0585537C30.2577 0.0692692 30.8526 0.315662 31.2937 0.745895C31.7349 1.17613 31.9879 1.75665 31.9996 2.36532C32.0112 2.97399 31.7806 3.56335 31.3563 4.00939L17.7352 17.3116C17.2836 17.7524 16.6712 18 16.0326 18C15.394 18 14.7816 17.7524 14.33 17.3116L0.705146 4.01307C0.253643 3.57216 0 2.97422 0 2.35076C0 1.72729 0.253643 1.12935 0.705146 0.688446Z" fill="#2D3229"/>
</svg>
