<svg width="24" height="24" viewBox="0 0 24 24" fill="none" xmlns="http://www.w3.org/2000/svg">
<path d="M7.12551 11.25H4.12443C3.02568 11.25 1.98432 10.86 1.20535 10.1475C0.426383 9.43496 0 8.48996 0 7.47747V3.77248C0 2.76749 0.426383 1.81499 1.20535 1.1025C1.98432 0.389999 3.01748 8.9407e-07 4.12443 8.9407e-07H7.12551C8.22427 8.9407e-07 9.26563 0.389999 10.0446 1.1025C10.8236 1.81499 11.2499 2.75999 11.2499 3.77248V7.47747C11.2499 8.48246 10.8236 9.43496 10.0446 10.1475C9.26563 10.86 8.23247 11.25 7.12551 11.25ZM4.12443 2.05499C3.62425 2.05499 3.15687 2.23499 2.79609 2.55749C2.4435 2.87999 2.24671 3.30749 2.24671 3.77248V7.47747C2.24671 7.93496 2.4435 8.36246 2.79609 8.69246C3.14867 9.01496 3.62425 9.19496 4.12443 9.19496H7.12551C7.62569 9.19496 8.09308 9.01496 8.45386 8.69246C8.80645 8.36996 9.00324 7.93496 9.00324 7.47747V3.77248C9.00324 3.32249 8.80645 2.87999 8.45386 2.55749C8.10128 2.23499 7.61749 2.05499 7.12551 2.05499H4.12443Z" fill="#2D3229"/>
<path d="M19.8755 11.2499H16.8744C15.7757 11.2499 14.7343 10.86 13.9554 10.1475C13.1764 9.43496 12.75 8.48996 12.75 7.47747V3.77248C12.75 2.76749 13.1764 1.81499 13.9554 1.1025C14.7343 0.389998 15.7675 0 16.8744 0H19.8755C20.9743 0 22.0156 0.389998 22.7946 1.1025C23.5736 1.81499 23.9999 2.75999 23.9999 3.77248V7.47747C23.9999 8.48246 23.5736 9.43496 22.7946 10.1475C22.0156 10.86 20.9825 11.2499 19.8755 11.2499ZM16.8744 2.05499C16.3743 2.05499 15.9069 2.23499 15.5461 2.55749C15.1935 2.87999 14.9967 3.30749 14.9967 3.77248V7.47747C14.9967 7.93496 15.1935 8.36246 15.5461 8.69246C15.8987 9.01496 16.3743 9.19496 16.8744 9.19496H19.8755C20.3757 9.19496 20.8431 9.01496 21.2039 8.69246C21.5564 8.36996 21.7532 7.93496 21.7532 7.47747V3.77248C21.7532 3.32248 21.5564 2.87999 21.2039 2.55749C20.8513 2.23499 20.3675 2.05499 19.8755 2.05499H16.8744Z" fill="#2D3229"/>
<path d="M7.12551 23.9999H4.12443C3.02568 23.9999 1.98432 23.6099 1.20535 22.8974C0.426383 22.1849 0 21.2399 0 20.2274V16.5224C0 15.5174 0.426383 14.5649 1.20535 13.8524C1.98432 13.1399 3.01748 12.7499 4.12443 12.7499H7.12551C8.22427 12.7499 9.26563 13.1399 10.0446 13.8524C10.8236 14.5649 11.2499 15.5099 11.2499 16.5224V20.2274C11.2499 21.2324 10.8236 22.1849 10.0446 22.8974C9.26563 23.6099 8.23247 23.9999 7.12551 23.9999ZM4.12443 14.8049C3.62425 14.8049 3.15687 14.9849 2.79609 15.3074C2.4435 15.6299 2.24671 16.0574 2.24671 16.5224V20.2274C2.24671 20.6849 2.4435 21.1124 2.79609 21.4424C3.14867 21.7649 3.62425 21.9449 4.12443 21.9449H7.12551C7.62569 21.9449 8.09308 21.7649 8.45386 21.4424C8.80645 21.1199 9.00324 20.6849 9.00324 20.2274V16.5224C9.00324 16.0724 8.80645 15.6299 8.45386 15.3074C8.10128 14.9849 7.61749 14.8049 7.12551 14.8049H4.12443Z" fill="#2D3229"/>
<path d="M19.8755 23.9999H16.8744C15.7757 23.9999 14.7343 23.6099 13.9554 22.8974C13.1764 22.1849 12.75 21.2399 12.75 20.2274V16.5224C12.75 15.5174 13.1764 14.5649 13.9554 13.8524C14.7343 13.1399 15.7675 12.7499 16.8744 12.7499H19.8755C20.9743 12.7499 22.0156 13.1399 22.7946 13.8524C23.5736 14.5649 23.9999 15.5099 23.9999 16.5224V20.2274C23.9999 21.2324 23.5736 22.1849 22.7946 22.8974C22.0156 23.6099 20.9825 23.9999 19.8755 23.9999ZM16.8744 14.8049C16.3743 14.8049 15.9069 14.9849 15.5461 15.3074C15.1935 15.6299 14.9967 16.0574 14.9967 16.5224V20.2274C14.9967 20.6849 15.1935 21.1124 15.5461 21.4424C15.8987 21.7649 16.3743 21.9449 16.8744 21.9449H19.8755C20.3757 21.9449 20.8431 21.7649 21.2039 21.4424C21.5564 21.1199 21.7532 20.6849 21.7532 20.2274V16.5224C21.7532 16.0724 21.5564 15.6299 21.2039 15.3074C20.8513 14.9849 20.3675 14.8049 19.8755 14.8049H16.8744Z" fill="#2D3229"/>
</svg>
