<svg width="32" height="24" viewBox="0 0 32 24" fill="none" xmlns="http://www.w3.org/2000/svg">
<path d="M10.9439 18.7617L28.482 0.641426C28.8959 0.213809 29.3788 0 29.9306 0C30.4824 0 30.9653 0.213809 31.3792 0.641426C31.7931 1.06904 32 1.57719 32 2.16588C32 2.75457 31.7931 3.26201 31.3792 3.6882L12.3925 23.3586C11.9786 23.7862 11.4958 24 10.9439 24C10.3921 24 9.90922 23.7862 9.49534 23.3586L0.596941 14.1648C0.183062 13.7372 -0.0156001 13.2298 0.000955104 12.6425C0.0175103 12.0552 0.233416 11.5471 0.648675 11.118C1.06393 10.689 1.55576 10.4752 2.12415 10.4766C2.69255 10.478 3.18368 10.6918 3.59756 11.118L10.9439 18.7617Z" fill="#2D3229"/>
<path d="M10.9439 18.7617L28.482 0.641426C28.8959 0.213809 29.3788 0 29.9306 0C30.4824 0 30.9653 0.213809 31.3792 0.641426C31.7931 1.06904 32 1.57719 32 2.16588C32 2.75457 31.7931 3.26201 31.3792 3.6882L12.3925 23.3586C11.9786 23.7862 11.4958 24 10.9439 24C10.3921 24 9.90922 23.7862 9.49534 23.3586L0.596941 14.1648C0.183062 13.7372 -0.0156001 13.2298 0.000955104 12.6425C0.0175103 12.0552 0.233416 11.5471 0.648675 11.118C1.06393 10.689 1.55576 10.4752 2.12415 10.4766C2.69255 10.478 3.18368 10.6918 3.59756 11.118L10.9439 18.7617Z" fill="#2D3229"/>
</svg>
