<svg width="32" height="32" viewBox="0 0 32 32" fill="none" xmlns="http://www.w3.org/2000/svg">
<path fill-rule="evenodd" clip-rule="evenodd" d="M28.4444 0C29.3874 0 30.2918 0.374602 30.9586 1.0414C31.6254 1.70819 32 2.61256 32 3.55556V28.4444C32 29.3874 31.6254 30.2918 30.9586 30.9586C30.2918 31.6254 29.3874 32 28.4444 32H3.55556C2.61256 32 1.70819 31.6254 1.0414 30.9586C0.374602 30.2918 0 29.3874 0 28.4444V3.55556C0 2.61256 0.374602 1.70819 1.0414 1.0414C1.70819 0.374602 2.61256 0 3.55556 0H28.4444ZM8.88889 3.55556H3.55556V28.4444H8.88889V3.55556ZM28.4444 3.55556H12.4444V28.4444H28.4444V3.55556ZM20.9653 10.9724C21.2853 10.6536 21.7146 10.4685 22.166 10.4547C22.6175 10.4409 23.0573 10.5995 23.3961 10.8982C23.7348 11.1969 23.9472 11.6134 23.99 12.0631C24.0329 12.5127 23.903 12.9618 23.6267 13.3191L23.4791 13.4862L20.9653 16L23.4791 18.5138C23.8013 18.833 23.9894 19.2632 24.0048 19.7165C24.0202 20.1698 23.8617 20.6119 23.5618 20.9521C23.262 21.2924 22.8434 21.5052 22.3918 21.547C21.9402 21.5888 21.4896 21.4564 21.1324 21.1769L20.9653 21.0276L17.1947 17.2587C16.8883 16.9528 16.7041 16.5456 16.6766 16.1135C16.6491 15.6815 16.7802 15.2543 17.0453 14.912L17.1947 14.7431L20.9653 10.9724Z" fill="#2D3229"/>
</svg>
