<svg width="32" height="48" viewBox="0 0 32 48" fill="none" xmlns="http://www.w3.org/2000/svg">
<g clip-path="url(#clip0_1080_1712)">
<path d="M2.28448 48.0002C1.81089 48.0002 1.32801 47.8511 0.919421 47.5528C-0.111339 46.7978 -0.269204 45.3066 0.445828 44.2441L13.985 24.2798C14.1893 23.9815 14.1893 23.5808 13.985 23.2825L0.455114 3.77493C-0.232059 2.76833 -0.148484 1.36095 0.770843 0.568718C1.82946 -0.34468 3.41739 -0.120991 4.18814 1.00678L19.0459 22.4437C19.5938 23.2359 19.6031 24.2891 19.0552 25.0813L4.20671 46.9843C3.76098 47.646 3.02737 48.0002 2.28448 48.0002Z" fill="#2D3229"/>
<path d="M14.8207 48C14.3471 48 13.8642 47.8509 13.4556 47.5527C12.4248 46.7977 12.267 45.3065 12.982 44.2439L26.5212 24.2797C26.7255 23.9814 26.7255 23.5806 26.5212 23.2824L12.9913 3.76549C12.2948 2.76821 12.3877 1.35151 13.307 0.559274C14.3656 -0.354124 15.9536 -0.121114 16.7243 0.997332L31.5821 22.4342C32.13 23.2265 32.1393 24.2797 31.5914 25.0719L16.7336 46.9748C16.2879 47.6366 15.5543 47.9907 14.8114 47.9907L14.8207 48Z" fill="#2D3229"/>
</g>
<defs>
<clipPath id="clip0_1080_1712">
<rect width="32" height="48" fill="white"/>
</clipPath>
</defs>
</svg>
