<svg width="24" height="24" viewBox="0 0 24 24" fill="none" xmlns="http://www.w3.org/2000/svg">
<path d="M3.43978 0.56625L11.5351 8.66152L19.5884 0.608194C19.7663 0.418852 19.9806 0.267384 20.2184 0.162875C20.4563 0.0583653 20.7128 0.00296619 20.9725 0C21.5288 0 22.0622 0.220956 22.4555 0.614262C22.8488 1.00757 23.0698 1.541 23.0698 2.09722C23.0747 2.35434 23.027 2.60975 22.9296 2.84778C22.8322 3.0858 22.6872 3.30141 22.5035 3.48139L14.3453 11.5347L22.5035 19.6929C22.8492 20.0311 23.0519 20.489 23.0698 20.9722C23.0698 21.5284 22.8488 22.0619 22.4555 22.4552C22.0622 22.8485 21.5288 23.0694 20.9725 23.0694C20.7053 23.0805 20.4386 23.0359 20.1895 22.9384C19.9404 22.8409 19.7142 22.6927 19.5255 22.5032L11.5351 14.4079L3.46076 22.4822C3.28355 22.6652 3.07186 22.8114 2.83789 22.9121C2.60391 23.0129 2.3523 23.0664 2.09756 23.0694C1.54134 23.0694 1.00791 22.8485 0.614603 22.4552C0.221298 22.0619 0.000341232 21.5284 0.000341232 20.9722C-0.00454843 20.7151 0.0431569 20.4597 0.14053 20.2216C0.237903 19.9836 0.382889 19.768 0.566591 19.588L8.72478 11.5347L0.566591 3.37652C0.220937 3.03837 0.0182507 2.58045 0.000341232 2.09722C0.000341232 1.541 0.221298 1.00757 0.614603 0.614262C1.00791 0.220956 1.54134 0 2.09756 0C2.60089 0.00629166 3.08326 0.209722 3.43978 0.56625Z" fill="#2D3229"/>
</svg>
