<svg width="32" height="32" viewBox="0 0 32 32" fill="none" xmlns="http://www.w3.org/2000/svg">
  <path d="M16.0323 32C11.5492 32 7.75665 30.4484 4.6547 27.3452C1.55276 24.242 0.00118758 20.4493 0 15.9673C0 11.8701 1.33602 8.31437 4.00807 5.30023C6.68012 2.28608 10.0944 0.527234 14.2509 0.0236889C14.6369 -0.0356914 14.9783 0.0165634 15.2752 0.180453C15.5721 0.344343 15.8096 0.5593 15.9877 0.825324C16.1659 1.09135 16.2627 1.40309 16.2781 1.76056C16.2935 2.11803 16.1819 2.45947 15.9432 2.78487C15.4385 3.55682 15.0597 4.3733 14.8067 5.23431C14.5537 6.09533 14.4279 7.00088 14.429 7.95096C14.429 10.6231 15.3643 12.8944 17.2347 14.7649C19.1051 16.6353 21.3764 17.5706 24.0484 17.5706C24.9688 17.5706 25.882 17.437 26.7882 17.1698C27.6943 16.9025 28.503 16.5314 29.2144 16.0564C29.541 15.8485 29.8753 15.7524 30.2173 15.7678C30.5593 15.7832 30.8633 15.8646 31.1293 16.0118C31.4262 16.1603 31.6566 16.383 31.8205 16.6799C31.9844 16.9768 32.0361 17.3331 31.9755 17.7487C31.5598 21.846 29.8159 25.2455 26.7436 27.9473C23.6714 30.6491 20.1009 32 16.0323 32ZM16.0323 28.4372C18.6449 28.4372 20.9904 27.7169 23.0687 26.2763C25.1469 24.8358 26.6611 22.9582 27.6111 20.6435C27.0174 20.792 26.4236 20.9107 25.8298 20.9998C25.236 21.0889 24.6422 21.1334 24.0484 21.1334C20.3966 21.1334 17.2864 19.849 14.7176 17.2802C12.1489 14.7114 10.8651 11.6017 10.8663 7.95096C10.8663 7.35716 10.9109 6.76336 10.9999 6.16955C11.089 5.57575 11.2077 4.98195 11.3562 4.38814C9.04042 5.33823 7.16227 6.85243 5.72174 8.93074C4.28121 11.0091 3.56154 13.3546 3.56273 15.9673C3.56273 19.4114 4.77999 22.3507 7.21452 24.7853C9.64906 27.2199 12.5883 28.4372 16.0323 28.4372Z" fill="#F6FBF2"/>
</svg>
