<svg width="32" height="32" viewBox="0 0 32 32" fill="none" xmlns="http://www.w3.org/2000/svg">
<path fill-rule="evenodd" d="M15.9677 0C20.4508 0 24.2433 1.55161 27.3453 4.65483C30.4472 7.75804 31.9988 11.5507 32 16.0327C32 20.1299 30.664 23.6856 27.9919 26.6998C25.3199 29.7139 21.9056 31.4728 17.7491 31.9763C17.3631 32.0357 17.0217 31.9834 16.7248 31.8195C16.4279 31.6557 16.1904 31.4407 16.0123 31.1747C15.8341 30.9087 15.7373 30.5969 15.7219 30.2394C15.7065 29.882 15.8181 29.5405 16.0568 29.2151C16.5615 28.4432 16.9403 27.6267 17.1933 26.7657C17.4463 25.9047 17.5721 24.9991 17.571 24.049C17.571 21.3769 16.6357 19.1056 14.7653 17.2351C12.8949 15.3647 10.6236 14.4294 7.95159 14.4294C7.03121 14.4294 6.11797 14.563 5.21185 14.8302C4.30573 15.0975 3.49699 15.4686 2.78563 15.9436C2.45905 16.1515 2.12474 16.2476 1.78272 16.2322C1.4407 16.2168 1.13668 16.1354 0.870663 15.9882C0.573769 15.8397 0.343377 15.617 0.179491 15.3201C0.0156056 15.0232 -0.0360531 14.6669 0.0245132 14.2513C0.440165 10.154 2.18412 6.75451 5.25638 4.05271C8.32864 1.3509 11.8991 0 15.9677 0ZM15.9677 3.56282C13.3551 3.56282 11.0096 4.2831 8.93134 5.72367C6.85308 7.16424 5.33892 9.04185 4.38886 11.3565C4.98264 11.208 5.57643 11.0893 6.17022 11.0002C6.76401 10.9111 7.3578 10.8666 7.95159 10.8666C11.6034 10.8666 14.7136 12.151 17.2824 14.7198C19.8511 17.2886 21.1349 20.3983 21.1337 24.049C21.1337 24.6428 21.0891 25.2366 21.0001 25.8304C20.911 26.4243 20.7923 27.0181 20.6438 27.6119C22.9596 26.6618 24.8377 25.1476 26.2783 23.0693C27.7188 20.9909 28.4385 18.6454 28.4373 16.0327C28.4373 12.5886 27.22 9.6493 24.7855 7.21471C22.3509 4.78012 19.4117 3.56282 15.9677 3.56282Z" fill="#2D3229"/>
</svg>
