<svg width="21" height="20" viewBox="0 0 21 20" fill="none" xmlns="http://www.w3.org/2000/svg">
<path d="M11.5269 10.2211V6.47594C11.5269 6.18118 11.4283 5.93428 11.2311 5.73524C11.034 5.53619 10.7903 5.43632 10.5 5.43563C10.2097 5.43493 9.96602 5.5348 9.76885 5.73524C9.57169 5.93567 9.47311 6.18257 9.47311 6.47594V10.6112C9.47311 10.7499 9.49878 10.8844 9.55012 11.0148C9.60147 11.1452 9.67848 11.2621 9.78117 11.3654L12.6565 14.2783C12.8447 14.469 13.0844 14.5644 13.3753 14.5644C13.6663 14.5644 13.9059 14.469 14.0941 14.2783C14.2824 14.0876 14.3765 13.8448 14.3765 13.5501C14.3765 13.2553 14.2824 13.0126 14.0941 12.8218L11.5269 10.2211ZM6.89354 19.2593C5.77218 18.7648 4.79663 18.0973 3.96689 17.2567C3.13716 16.4161 2.47824 15.4278 1.99012 14.2918C1.502 13.1558 1.25795 11.9376 1.25795 10.6372C1.25795 9.33679 1.502 8.11894 1.99012 6.98361C2.47824 5.84828 3.13682 4.85999 3.96587 4.01872C4.79491 3.17746 5.77046 2.50992 6.89252 2.01612C8.01457 1.52232 9.21707 1.27507 10.5 1.27438C11.7829 1.27369 12.9854 1.52093 14.1075 2.01612C15.2295 2.51131 16.2051 3.17884 17.0341 4.01872C17.8632 4.8586 18.5221 5.8469 19.0109 6.98361C19.4997 8.12032 19.7434 9.33818 19.7421 10.6372C19.7407 11.9362 19.497 13.1544 19.0109 14.2918C18.5248 15.4292 17.8659 16.4175 17.0341 17.2567C16.2023 18.0959 15.2268 18.7634 14.1075 19.2593C12.9882 19.7552 11.7857 20.0021 10.5 20C9.21433 19.9979 8.01218 19.751 6.89354 19.2593ZM0.282396 4.70741C0.094132 4.51669 0 4.27395 0 3.97919C0 3.68444 0.094132 3.4417 0.282396 3.25097L3.20905 0.286085C3.39731 0.0953617 3.63692 0 3.92787 0C4.21883 0 4.45843 0.0953617 4.6467 0.286085C4.83496 0.476809 4.92909 0.719549 4.92909 1.0143C4.92909 1.30906 4.83496 1.5518 4.6467 1.74252L1.72005 4.70741C1.53178 4.89813 1.29218 4.99349 1.00122 4.99349C0.710269 4.99349 0.47066 4.89813 0.282396 4.70741ZM20.7176 4.70741C20.5293 4.89813 20.2897 4.99349 19.9988 4.99349C19.7078 4.99349 19.4682 4.89813 19.2799 4.70741L16.3533 1.74252C16.165 1.5518 16.0709 1.30906 16.0709 1.0143C16.0709 0.719549 16.165 0.476809 16.3533 0.286085C16.5416 0.0953617 16.7812 0 17.0721 0C17.3631 0 17.6027 0.0953617 17.791 0.286085L20.7176 3.25097C20.9059 3.4417 21 3.68444 21 3.97919C21 4.27395 20.9059 4.51669 20.7176 4.70741ZM10.5 17.9194C12.5024 17.9194 14.2013 17.213 15.5965 15.8002C16.9917 14.3875 17.6889 12.6665 17.6883 10.6372C17.6876 8.60788 16.9903 6.88721 15.5965 5.47516C14.2026 4.06311 12.5038 3.35639 10.5 3.355C8.49619 3.35362 6.7977 4.06034 5.40455 5.47516C4.01139 6.88998 3.31379 8.61066 3.31174 10.6372C3.30968 12.6637 4.00729 14.3847 5.40455 15.8002C6.80181 17.2158 8.50029 17.9221 10.5 17.9194Z" fill="#7F8C73"/>
</svg>
