<svg width="29" height="32" viewBox="0 0 29 32" fill="none" xmlns="http://www.w3.org/2000/svg">
<path d="M19.9367 30.0048C20.0092 30.5381 19.828 31.1069 19.4112 31.4802C19.2435 31.645 19.0444 31.7757 18.8252 31.8649C18.6059 31.9541 18.3709 32 18.1336 32C17.8962 32 17.6612 31.9541 17.442 31.8649C17.2227 31.7757 17.0236 31.645 16.8559 31.4802L9.5888 24.3523C9.39126 24.1627 9.24105 23.9309 9.14989 23.6749C9.05873 23.419 9.02908 23.1459 9.06325 22.8769V13.7759L0.38258 2.87961C0.0882852 2.50905 -0.0445062 2.03929 0.0132214 1.573C0.070949 1.1067 0.314502 0.681768 0.690662 0.391058C1.03499 0.142203 1.41556 0 1.81426 0H27.1857C27.5844 0 27.965 0.142203 28.3093 0.391058C28.6855 0.681768 28.929 1.1067 28.9868 1.573C29.0445 2.03929 28.9117 2.50905 28.6174 2.87961L19.9367 13.7759V30.0048ZM5.51124 3.55507L12.6877 12.5494V22.3614L16.3122 25.9165V12.5316L23.4888 3.55507H5.51124Z" fill="#2D3229"/>
</svg>
