<svg width="8" height="32" viewBox="0 0 8 32" fill="none" xmlns="http://www.w3.org/2000/svg">
<path d="M0 3.69231C0 2.71305 0.421427 1.77389 1.17157 1.08145C1.92172 0.38901 2.93913 0 4 0C5.06087 0 6.07828 0.38901 6.82843 1.08145C7.57857 1.77389 8 2.71305 8 3.69231C8 4.67157 7.57857 5.61072 6.82843 6.30316C6.07828 6.99561 5.06087 7.38462 4 7.38462C2.93913 7.38462 1.92172 6.99561 1.17157 6.30316C0.421427 5.61072 0 4.67157 0 3.69231ZM0 16C0 15.0207 0.421427 14.0816 1.17157 13.3891C1.92172 12.6967 2.93913 12.3077 4 12.3077C5.06087 12.3077 6.07828 12.6967 6.82843 13.3891C7.57857 14.0816 8 15.0207 8 16C8 16.9793 7.57857 17.9184 6.82843 18.6109C6.07828 19.3033 5.06087 19.6923 4 19.6923C2.93913 19.6923 1.92172 19.3033 1.17157 18.6109C0.421427 17.9184 0 16.9793 0 16ZM0 28.3077C0 27.3284 0.421427 26.3893 1.17157 25.6968C1.92172 25.0044 2.93913 24.6154 4 24.6154C5.06087 24.6154 6.07828 25.0044 6.82843 25.6968C7.57857 26.3893 8 27.3284 8 28.3077C8 29.287 7.57857 30.2261 6.82843 30.9186C6.07828 31.611 5.06087 32 4 32C2.93913 32 1.92172 31.611 1.17157 30.9186C0.421427 30.2261 0 29.287 0 28.3077Z" fill="#2D3229"/>
</svg>
