<svg width="32" height="32" viewBox="0 0 32 32" fill="none" xmlns="http://www.w3.org/2000/svg">
<path fill-rule="evenodd" clip-rule="evenodd" d="M16 10.4C15.2646 10.4 14.5364 10.5448 13.857 10.8263C13.1776 11.1077 12.5602 11.5202 12.0402 12.0402C11.5202 12.5602 11.1077 13.1776 10.8263 13.857C10.5448 14.5364 10.4 15.2646 10.4 16C10.4 16.7354 10.5448 17.4636 10.8263 18.143C11.1077 18.8225 11.5202 19.4398 12.0402 19.9598C12.5602 20.4798 13.1776 20.8923 13.857 21.1737C14.5364 21.4552 15.2646 21.6 16 21.6C17.4852 21.6 18.9096 21.01 19.9598 19.9598C21.01 18.9096 21.6 17.4852 21.6 16C21.6 14.5148 21.01 13.0904 19.9598 12.0402C18.9096 10.99 17.4852 10.4 16 10.4ZM7.2 16C7.2 13.6661 8.12714 11.4278 9.77746 9.77746C11.4278 8.12714 13.6661 7.2 16 7.2C18.3339 7.2 20.5722 8.12714 22.2225 9.77746C23.8729 11.4278 24.8 13.6661 24.8 16C24.8 18.3339 23.8729 20.5722 22.2225 22.2225C20.5722 23.8729 18.3339 24.8 16 24.8C13.6661 24.8 11.4278 23.8729 9.77746 22.2225C8.12714 20.5722 7.2 18.3339 7.2 16ZM16 0C16.4243 0 16.8313 0.168571 17.1314 0.468629C17.4314 0.768687 17.6 1.17565 17.6 1.6V4C17.6 4.42435 17.4314 4.83131 17.1314 5.13137C16.8313 5.43143 16.4243 5.6 16 5.6C15.5757 5.6 15.1687 5.43143 14.8686 5.13137C14.5686 4.83131 14.4 4.42435 14.4 4V1.6C14.4 1.17565 14.5686 0.768687 14.8686 0.468629C15.1687 0.168571 15.5757 0 16 0ZM16 26.4C16.4243 26.4 16.8313 26.5686 17.1314 26.8686C17.4314 27.1687 17.6 27.5757 17.6 28V30.4C17.6 30.8243 17.4314 31.2313 17.1314 31.5314C16.8313 31.8314 16.4243 32 16 32C15.5757 32 15.1687 31.8314 14.8686 31.5314C14.5686 31.2313 14.4 30.8243 14.4 30.4V28C14.4 27.5757 14.5686 27.1687 14.8686 26.8686C15.1687 26.5686 15.5757 26.4 16 26.4ZM5.6 16C5.6 16.4243 5.43143 16.8313 5.13137 17.1314C4.83131 17.4314 4.42435 17.6 4 17.6H1.6C1.17565 17.6 0.768687 17.4314 0.468629 17.1314C0.168571 16.8313 0 16.4243 0 16C0 15.5757 0.168571 15.1687 0.468629 14.8686C0.768687 14.5686 1.17565 14.4 1.6 14.4H4C4.42435 14.4 4.83131 14.5686 5.13137 14.8686C5.43143 15.1687 5.6 15.5757 5.6 16ZM32 16C32 16.4243 31.8314 16.8313 31.5314 17.1314C31.2313 17.4314 30.8243 17.6 30.4 17.6H28C27.5757 17.6 27.1687 17.4314 26.8686 17.1314C26.5686 16.8313 26.4 16.4243 26.4 16C26.4 15.5757 26.5686 15.1687 26.8686 14.8686C27.1687 14.5686 27.5757 14.4 28 14.4H30.4C30.8243 14.4 31.2313 14.5686 31.5314 14.8686C31.8314 15.1687 32 15.5757 32 16ZM8.6464 23.3536C8.94635 23.6536 9.11486 24.0605 9.11486 24.4848C9.11486 24.9091 8.94635 25.316 8.6464 25.616L6.9504 27.3136C6.65039 27.6138 6.2434 27.7826 5.81897 27.7827C5.39453 27.7829 4.98743 27.6144 4.6872 27.3144C4.38698 27.0144 4.21823 26.6074 4.21808 26.183C4.21793 25.7585 4.38639 25.3514 4.6864 25.0512L6.3824 23.3552C6.531 23.2064 6.70746 23.0884 6.9017 23.0079C7.09593 22.9274 7.30413 22.8859 7.5144 22.8859C7.72466 22.8859 7.93287 22.9274 8.1271 23.0079C8.32134 23.0884 8.4978 23.2048 8.6464 23.3536ZM27.3136 4.6864C27.6136 4.98644 27.7821 5.39334 27.7821 5.8176C27.7821 6.24186 27.6136 6.64876 27.3136 6.9488L25.6176 8.6448C25.4701 8.79772 25.2936 8.91973 25.0985 9.00372C24.9034 9.08771 24.6934 9.13199 24.481 9.13399C24.2685 9.13598 24.0578 9.09565 23.8611 9.01534C23.6645 8.93503 23.4857 8.81635 23.3354 8.66623C23.1851 8.51611 23.0661 8.33755 22.9855 8.14098C22.905 7.9444 22.8643 7.73375 22.866 7.5213C22.8677 7.30885 22.9117 7.09887 22.9954 6.90361C23.0791 6.70834 23.2009 6.5317 23.3536 6.384L25.0496 4.6864C25.1982 4.53764 25.3747 4.41962 25.5689 4.3391C25.7631 4.25859 25.9713 4.21714 26.1816 4.21714C26.3919 4.21714 26.6001 4.25859 26.7943 4.3391C26.9885 4.41962 27.165 4.53764 27.3136 4.6864ZM23.3536 23.3536C23.6536 23.0536 24.0605 22.8851 24.4848 22.8851C24.9091 22.8851 25.316 23.0536 25.616 23.3536L27.3136 25.0496C27.6138 25.3496 27.7826 25.7566 27.7827 26.181C27.7829 26.6055 27.6144 27.0126 27.3144 27.3128C27.0144 27.613 26.6074 27.7818 26.183 27.7819C25.7585 27.7821 25.3514 27.6136 25.0512 27.3136L23.3552 25.6176C23.2064 25.469 23.0884 25.2925 23.0079 25.0983C22.9274 24.9041 22.8859 24.6959 22.8859 24.4856C22.8859 24.2753 22.9274 24.0671 23.0079 23.8729C23.0884 23.6787 23.2048 23.5022 23.3536 23.3536ZM4.6864 4.6864C4.98644 4.38645 5.39334 4.21794 5.8176 4.21794C6.24186 4.21794 6.64876 4.38645 6.9488 4.6864L8.6448 6.3824C8.79356 6.53085 8.91163 6.70714 8.99226 6.90121C9.07289 7.09529 9.1145 7.30335 9.11472 7.5135C9.11495 7.72366 9.07377 7.9318 8.99356 8.12605C8.91334 8.3203 8.79565 8.49684 8.6472 8.6456C8.49875 8.79436 8.32246 8.91243 8.12839 8.99306C7.93431 9.07369 7.72625 9.1153 7.5161 9.11552C7.30594 9.11575 7.0978 9.07457 6.90355 8.99436C6.70931 8.91414 6.53276 8.79645 6.384 8.648L4.6864 6.952C4.53764 6.8034 4.41962 6.62694 4.3391 6.4327C4.25859 6.23847 4.21714 6.03026 4.21714 5.82C4.21714 5.60974 4.25859 5.40153 4.3391 5.2073C4.41962 5.01306 4.53764 4.835 4.6864 4.6864Z" fill="#2D3229"/>
</svg>
