<svg width="32" height="32" viewBox="0 0 32 32" fill="none" xmlns="http://www.w3.org/2000/svg">
<path d="M3.63636 32C2.63636 32 1.78061 31.6521 1.06909 30.9564C0.357576 30.2607 0.00121212 29.4234 0 28.4444V3.55555C0 2.57778 0.356364 1.74104 1.06909 1.04533C1.78182 0.349629 2.63758 0.00118518 3.63636 0H14.5455C15.0606 0 15.4927 0.170667 15.8418 0.512C16.1909 0.853333 16.3648 1.27526 16.3636 1.77778C16.3624 2.28029 16.1879 2.70281 15.84 3.04533C15.4921 3.38785 15.0606 3.55792 14.5455 3.55555H3.63636V28.4444H14.5455C15.0606 28.4444 15.4927 28.6151 15.8418 28.9564C16.1909 29.2978 16.3648 29.7197 16.3636 30.2222C16.3624 30.7247 16.1879 31.1472 15.84 31.4898C15.4921 31.8323 15.0606 32.0023 14.5455 32H3.63636ZM25.7727 17.7778H12.7273C12.2121 17.7778 11.7806 17.6071 11.4327 17.2658C11.0848 16.9244 10.9103 16.5025 10.9091 16C10.9079 15.4975 11.0824 15.0755 11.4327 14.7342C11.783 14.3929 12.2145 14.2222 12.7273 14.2222H25.7727L22.3636 10.8889C22.0303 10.563 21.8636 10.163 21.8636 9.68888C21.8636 9.21481 22.0303 8.79999 22.3636 8.44444C22.697 8.08888 23.1212 7.9034 23.6364 7.88799C24.1515 7.87259 24.5909 8.04325 24.9545 8.39999L31.4545 14.7555C31.8182 15.1111 32 15.5259 32 16C32 16.4741 31.8182 16.8889 31.4545 17.2444L24.9545 23.6C24.5909 23.9555 24.1594 24.1262 23.66 24.112C23.1606 24.0978 22.7285 23.9123 22.3636 23.5555C22.0303 23.2 21.8715 22.7781 21.8873 22.2898C21.903 21.8015 22.077 21.3938 22.4091 21.0667L25.7727 17.7778Z" fill="#2D3229"/>
</svg>
