<svg width="32" height="32" viewBox="0 0 32 32" fill="none" xmlns="http://www.w3.org/2000/svg">
<path d="M13.7143 18.2857H2.28572C1.6381 18.2857 1.09563 18.0663 0.658293 17.6274C0.22096 17.1886 0.00153169 16.6461 7.88176e-06 16C-0.00151593 15.3539 0.217913 14.8114 0.658293 14.3726C1.09867 13.9337 1.64115 13.7143 2.28572 13.7143H13.7143V2.28572C13.7143 1.6381 13.9337 1.09563 14.3726 0.658293C14.8114 0.22096 15.3539 0.00153169 16 7.88176e-06C16.6461 -0.00151593 17.1893 0.217913 17.6297 0.658293C18.0701 1.09867 18.2888 1.64115 18.2857 2.28572V13.7143H29.7143C30.3619 13.7143 30.9051 13.9337 31.344 14.3726C31.7828 14.8114 32.0015 15.3539 32 16C31.9985 16.6461 31.779 17.1893 31.3417 17.6297C30.9044 18.0701 30.3619 18.2888 29.7143 18.2857H18.2857V29.7143C18.2857 30.3619 18.0663 30.9051 17.6274 31.344C17.1886 31.7828 16.6461 32.0015 16 32C15.3539 31.9985 14.8114 31.779 14.3726 31.3417C13.9337 30.9044 13.7143 30.3619 13.7143 29.7143V18.2857Z" fill="#2D3229"/>
</svg>
