<svg width="12" height="12" viewBox="0 0 12 12" fill="none" xmlns="http://www.w3.org/2000/svg">
<path d="M6.69159 0.410126C6.92137 0.672726 7.05045 1.02889 7.05045 1.40026L7.1 10.6011C7.1 10.9725 6.97091 11.3286 6.74114 11.5912C6.51136 11.8538 6.19972 12.0014 5.87477 12.0014C5.54982 12.0014 5.23818 11.8538 5.00841 11.5912C4.77863 11.3286 4.64955 10.9725 4.64955 10.6011L4.6 1.40026C4.6 1.02889 4.72908 0.672725 4.95886 0.410126C5.18863 0.147527 5.50028 -6.99261e-08 5.82523 -5.57221e-08C6.15018 -4.15181e-08 6.46182 0.147527 6.69159 0.410126Z" fill="#F8085C"/>
<path d="M10.2425 2.55875C9.90021 2.49106 9.52723 2.55735 9.20561 2.74304L1.21266 7.30056C0.891042 7.48624 0.647139 7.77611 0.534608 8.1064C0.422078 8.43669 0.450137 8.78035 0.612612 9.06176C0.775087 9.34318 1.05867 9.5393 1.40097 9.60699C1.74328 9.67469 2.11627 9.6084 2.43788 9.42271L10.4308 4.86519C10.7525 4.67951 10.9964 4.38963 11.1089 4.05934C11.2214 3.72905 11.1934 3.3854 11.0309 3.10399C10.8684 2.82257 10.5848 2.62644 10.2425 2.55875Z" fill="#F8085C"/>
<path d="M1.40098 2.55875C1.74328 2.49106 2.11627 2.55735 2.43789 2.74304L10.4308 7.30056C10.7525 7.48624 10.9964 7.77611 11.1089 8.1064C11.2214 8.43669 11.1934 8.78035 11.0309 9.06176C10.8684 9.34318 10.5848 9.5393 10.2425 9.60699C9.90021 9.67469 9.52723 9.6084 9.20561 9.42271L1.21266 4.86519C0.891042 4.67951 0.647141 4.38963 0.53461 4.05934C0.42208 3.72905 0.450138 3.3854 0.612613 3.10399C0.775089 2.82257 1.05867 2.62644 1.40098 2.55875Z" fill="#F8085C"/>
</svg>
