<svg width="34" height="32" viewBox="0 0 34 32" fill="none" xmlns="http://www.w3.org/2000/svg">
<path d="M6.86621 7.02637L6.85449 6.30664V6.30469C6.83248 5.04982 6.84607 4.75203 6.91895 4.51465C6.99906 4.25781 7.13372 4.02137 7.3125 3.82031L7.31348 3.81836C7.47459 3.63673 7.71692 3.4734 8.80078 2.84668C8.81344 2.83936 8.82546 2.83093 8.83789 2.82324L9.61719 2.37012C9.62595 2.36527 9.63586 2.36245 9.64453 2.35742C10.7408 1.72145 11.001 1.59082 11.2441 1.54004C11.5084 1.48486 11.7815 1.48602 12.0449 1.54492C12.2883 1.60013 12.553 1.73756 13.6348 2.3877L13.6367 2.38867L14.2422 2.75098C14.3 2.78621 14.3874 2.83937 14.4717 2.88574V2.8877C15.1541 3.26806 15.9183 3.47903 16.6992 3.50391C16.7111 3.50428 16.7234 3.50479 16.7354 3.50488L16.9561 3.50684H16.9668C17.0457 3.50684 17.1383 3.50523 17.2334 3.50098L17.2344 3.50293C17.2492 3.50246 17.2645 3.5006 17.2793 3.5H17.2812L17.2803 3.49902C18.0426 3.46809 18.7877 3.26243 19.458 2.88867C19.4625 2.88619 19.4673 2.88339 19.4717 2.88086C19.5107 2.85858 19.5814 2.8194 19.6973 2.74902L19.6963 2.74805L20.2881 2.39746C20.2933 2.39437 20.2976 2.38987 20.3027 2.38672C21.244 1.82365 21.5579 1.65205 21.7812 1.58203L21.874 1.55762C22.1366 1.49871 22.4093 1.49626 22.6729 1.55078H22.6738C22.9159 1.60073 23.178 1.73049 24.2715 2.36035L25.1094 2.84375L25.1113 2.8457C26.0707 3.39717 26.3782 3.5909 26.5498 3.75391L26.6162 3.82324C26.7961 4.0248 26.9313 4.26263 27.0117 4.52051L27.0127 4.52246C27.0855 4.75446 27.0984 5.04324 27.0762 6.30078V6.30664L27.0674 6.97461C27.0188 7.95198 27.2662 8.92002 27.7734 9.75586L27.7725 9.75684C27.8023 9.80905 27.8555 9.90269 27.9131 9.99316L27.9121 9.99414C27.9207 10.008 27.9298 10.0214 27.9385 10.0352V10.0342C28.3465 10.6773 28.8984 11.2172 29.5518 11.6094C29.5626 11.6159 29.574 11.6217 29.585 11.6279L29.7764 11.7363L29.7852 11.7412L30.4072 12.0879C30.4087 12.0887 30.4106 12.089 30.4121 12.0898V12.0908C31.3753 12.6257 31.6819 12.8127 31.8545 12.9717L31.9238 13.041C32.1054 13.2378 32.2432 13.4707 32.3281 13.7246V13.7256C32.406 13.9608 32.4249 14.2536 32.4268 15.5137L32.4277 15.5166L32.4307 16.4902C32.4343 17.7384 32.4159 18.0339 32.3398 18.2676C32.255 18.525 32.1162 18.7624 31.9346 18.959L31.8643 19.0293C31.7395 19.1439 31.5456 19.2713 31.0898 19.5322L30.4043 19.917L29.8047 20.25L29.7881 20.2588L29.6016 20.3623L29.5605 20.3857C28.8878 20.7874 28.3208 21.3447 27.9082 22.0107L27.8926 22.0371L27.7822 22.2246C27.3241 22.9745 27.0758 23.8339 27.0645 24.7129V24.9746L27.0781 25.7217C27.1001 26.9588 27.0855 27.25 27.0137 27.4824C26.9316 27.7441 26.7991 27.9802 26.6221 28.1787L26.6191 28.1816C26.4576 28.3638 26.2172 28.5228 25.1299 29.1553L24.29 29.6426C23.2001 30.2749 22.9332 30.4096 22.6924 30.4609C22.4278 30.5156 22.1541 30.5128 21.8906 30.4531L21.8848 30.4521L21.792 30.4277C21.5663 30.3574 21.2487 30.183 20.2959 29.6113L19.6592 29.2285L19.6562 29.2266L19.5 29.1338L19.457 29.1084L19.1982 28.9756C18.5863 28.6823 17.9177 28.5157 17.2334 28.4941L17.1865 28.4932H16.9541L16.7334 28.4951L16.6982 28.4961C15.917 28.5206 15.1575 28.7313 14.4785 29.1074L14.4492 29.124L14.2568 29.2363L14.2432 29.2441L13.6426 29.6045H13.6416C12.5556 30.2557 12.2991 30.389 12.0596 30.4424H12.0586C11.796 30.5013 11.5233 30.5037 11.2598 30.4492H11.2588C11.0772 30.4117 10.8862 30.3294 10.3389 30.0244L9.66016 29.6387L8.82324 29.1553H8.82227C7.72261 28.5203 7.48017 28.3604 7.31641 28.1768C7.18158 28.0256 7.0716 27.8542 6.99121 27.6689L6.9209 27.4785C6.84732 27.2432 6.83238 26.9479 6.85449 25.6836V25.6826L6.86621 24.9922L6.86523 24.9912C6.90024 24.1266 6.707 23.2682 6.30176 22.5029L6.28613 22.4736L6.17285 22.2695H6.17188C5.75423 21.4927 5.1348 20.8424 4.37793 20.3887H4.37695C4.32715 20.3584 4.28258 20.3334 4.25 20.3154C4.20451 20.2903 4.18266 20.2783 4.13184 20.25L4.12988 20.249L3.52246 19.9111C2.55922 19.3755 2.25022 19.188 2.0752 19.0273L2.00684 18.959C1.82569 18.7616 1.6887 18.5278 1.60449 18.2734V18.2725C1.52635 18.0364 1.50574 17.7419 1.50391 16.4863V16.4834L1.5 15.5283C1.4982 14.2723 1.51618 13.9712 1.59277 13.7324C1.67761 13.4756 1.81647 13.2397 2 13.041L2.00391 13.0361C2.16919 12.8557 2.41438 12.6981 3.52637 12.083H3.52734L4.14062 11.7432L4.14844 11.7393L4.33887 11.6318C4.35006 11.6255 4.36104 11.6189 4.37207 11.6123C5.03445 11.2169 5.59299 10.6701 6.00391 10.0176L6.00488 10.0186C6.04271 9.9607 6.07309 9.90825 6.0918 9.87598C6.11376 9.83809 6.12697 9.81386 6.15137 9.77246L6.15039 9.77148C6.60784 9.02325 6.85761 8.1664 6.87012 7.28906L6.86816 7.28809C6.86948 7.21612 6.86876 7.15299 6.86816 7.13379C6.8672 7.10294 6.86719 7.0812 6.86719 7.05078C6.86719 7.04268 6.86634 7.03446 6.86621 7.02637Z" stroke="#2D3229" stroke-width="3" stroke-linecap="round" stroke-linejoin="round"/>
<path d="M16.9657 10.7112C18.3682 10.7112 19.7132 11.2684 20.705 12.26C21.6968 13.2518 22.2538 14.5976 22.2538 16.0002C22.2537 17.4028 21.6967 18.7477 20.705 19.7395C19.7132 20.7313 18.3683 21.2882 16.9657 21.2883C15.563 21.2883 14.2173 20.7313 13.2255 19.7395C12.2338 18.7477 11.6767 17.4027 11.6766 16.0002C11.6766 14.5976 12.2336 13.2518 13.2255 12.26C14.2173 11.2682 15.563 10.7112 16.9657 10.7112Z" stroke="#2D3229" stroke-width="3" stroke-linecap="round" stroke-linejoin="round"/>
</svg>
