<svg width="24" height="24" viewBox="0 0 24 24" fill="none" xmlns="http://www.w3.org/2000/svg">
<path d="M19.8755 23.9999H4.12443C3.02568 23.9999 1.98432 23.6122 1.20535 22.904C0.426383 22.1957 0 21.2564 0 20.2499V3.77249C0 2.76749 0.426383 1.815 1.20535 1.1025C1.98432 0.390002 3.01748 3.51667e-06 4.12443 3.51667e-06H19.8755C20.9742 3.51667e-06 22.0156 0.390002 22.7945 1.1025C23.5735 1.815 23.9999 2.75999 23.9999 3.77249V20.2499C23.9999 21.2489 23.5735 22.1957 22.7945 22.904C22.0156 23.6122 20.9824 23.9999 19.8755 23.9999ZM4.12443 2.05499C3.62425 2.05499 3.15687 2.23499 2.79609 2.55749C2.4435 2.87999 2.24671 3.30749 2.24671 3.77249V20.2499C2.24671 20.7047 2.4435 21.1296 2.79609 21.4577C3.14867 21.7782 3.62425 21.9572 4.12443 21.9572H19.8755C20.3756 21.9572 20.843 21.7782 21.2038 21.4577C21.5564 21.1371 21.7532 20.7047 21.7532 20.2499V3.77249C21.7532 3.32249 21.5564 2.87999 21.2038 2.55749C20.8512 2.23499 20.3674 2.05499 19.8755 2.05499H4.12443Z" fill="#2D3229"/>
<path d="M0 11.9999L23.9999 11.9999" stroke="#2D3229" stroke-width="2.24999"/>
<path d="M8.25 0V23.9999M15.75 0V23.9999" stroke="#2D3229" stroke-width="2.24999"/>
</svg>
