<svg width="24" height="24" viewBox="0 0 24 24" fill="none" xmlns="http://www.w3.org/2000/svg">
<path d="M19.756 3.88422C20.0833 3.88422 20.4052 4.02736 20.6398 4.28382C20.8743 4.54028 21.0053 4.89216 21.0053 5.25001C21.0053 5.61382 20.8743 5.95378 20.6398 6.2162C20.4052 6.47266 20.0942 6.6158 19.756 6.6158L14.25 6.6158L14.25 8.24997L19.756 8.24997C20.487 8.24997 21.1798 7.93984 21.6981 7.37324C22.2163 6.80665 22.5 6.05517 22.5 5.25001C22.5 4.45082 22.2163 3.69337 21.6981 3.12678C21.1798 2.56018 20.4925 2.25005 19.756 2.25005L14.25 2.25005L14.25 3.88422L19.756 3.88422Z" fill="#2D3229"/>
<path d="M10.5 3.88422L10.5 2.25005L5.72765 2.25005C5.00101 2.25005 4.31233 2.56018 3.79717 3.12678C3.28201 3.69337 3.00003 4.44485 3.00003 5.25001C3.00003 6.0492 3.28201 6.80665 3.79717 7.37324C4.31233 7.93984 4.99559 8.24997 5.72765 8.24997L10.5 8.24997L10.5 6.6158L5.72765 6.6158C5.39687 6.6158 5.08777 6.47266 4.84917 6.2162C4.616 5.95974 4.48585 5.61382 4.48585 5.25001C4.48585 4.8862 4.616 4.54624 4.84917 4.28382C5.08235 4.02736 5.39687 3.88422 5.72765 3.88422L10.5 3.88422Z" fill="#2D3229"/>
<path d="M17.506 10.6341C17.8333 10.6341 18.1552 10.7773 18.3898 11.0337C18.6243 11.2902 18.7553 11.6421 18.7553 11.9999C18.7553 12.3637 18.6243 12.7037 18.3898 12.9661C18.1552 13.2226 17.8442 13.3657 17.506 13.3657L14.25 13.3657L14.25 14.9999L17.506 14.9999C18.237 14.9999 18.9298 14.6898 19.4481 14.1232C19.9663 13.5566 20.25 12.8051 20.25 11.9999C20.25 11.2007 19.9663 10.4433 19.4481 9.8767C18.9298 9.31011 18.2425 8.99997 17.506 8.99997L14.25 8.99997L14.25 10.6341L17.506 10.6341Z" fill="#2D3229"/>
<path d="M10.5 10.6341L10.5 8.99997L2.72766 8.99997C2.00102 8.99997 1.31234 9.31011 0.797184 9.8767C0.282027 10.4433 4.785e-05 11.1948 4.78148e-05 11.9999C4.77799e-05 12.7991 0.282027 13.5566 0.797184 14.1232C1.31234 14.6898 1.9956 14.9999 2.72766 14.9999L10.5 14.9999L10.5 13.3657L2.72766 13.3657C2.39688 13.3657 2.08779 13.2226 1.84919 12.9661C1.61601 12.7097 1.48587 12.3637 1.48587 11.9999C1.48587 11.6361 1.61601 11.2962 1.84919 11.0337C2.08236 10.7773 2.39688 10.6341 2.72766 10.6341L10.5 10.6341Z" fill="#2D3229"/>
<path d="M21.256 17.3841C21.5833 17.3841 21.9052 17.5273 22.1398 17.7837C22.3743 18.0402 22.5053 18.3921 22.5053 18.7499C22.5053 19.1137 22.3743 19.4537 22.1398 19.7161C21.9052 19.9726 21.5942 20.1157 21.256 20.1157L14.25 20.1157L14.25 21.7499L21.256 21.7499C21.987 21.7499 22.6798 21.4397 23.1981 20.8731C23.7163 20.3065 24 19.5551 24 18.7499C24 17.9507 23.7163 17.1933 23.1981 16.6267C22.6798 16.0601 21.9925 15.7499 21.256 15.7499L14.25 15.7499L14.25 17.3841L21.256 17.3841Z" fill="#2D3229"/>
<path d="M10.5 17.3841L10.5 15.7499L6.47765 15.7499C5.75101 15.7499 5.06232 16.0601 4.54717 16.6267C4.03201 17.1933 3.75003 17.9447 3.75003 18.7499C3.75003 19.5491 4.03201 20.3065 4.54717 20.8731C5.06232 21.4397 5.74558 21.7499 6.47765 21.7499L10.5 21.7499L10.5 20.1157L6.47765 20.1157C6.14686 20.1157 5.83777 19.9726 5.59917 19.7161C5.36599 19.4596 5.23585 19.1137 5.23585 18.7499C5.23585 18.3861 5.36599 18.0461 5.59917 17.7837C5.83235 17.5273 6.14686 17.3841 6.47765 17.3841L10.5 17.3841Z" fill="#2D3229"/>
<path d="M13.1705 0.369971C13.3815 0.606858 13.5 0.928146 13.5 1.26315V22.7367C13.5 23.0717 13.3815 23.393 13.1705 23.6299C12.9595 23.8668 12.6734 23.9999 12.375 23.9999C12.0766 23.9999 11.7905 23.8668 11.5795 23.6299C11.3685 23.393 11.25 23.0717 11.25 22.7367V1.26315C11.25 0.928146 11.3685 0.606858 11.5795 0.369971C11.7905 0.133084 12.0766 2.80142e-06 12.375 2.80142e-06C12.6734 2.80142e-06 12.9595 0.133084 13.1705 0.369971Z" fill="#2D3229"/>
</svg>
