<svg width="287" height="150" viewBox="0 0 287 150" fill="none" xmlns="http://www.w3.org/2000/svg">
<path d="M85.5167 147.66C80.2369 147.66 75.9556 143.38 75.9556 138.098V21.419C92.5 21.419 76.9998 21.419 95.0763 21.419V138.1C95.0763 143.38 90.7966 147.661 85.5152 147.661L85.5167 147.66Z" fill="#61A039"/>
<path d="M135.289 21.4611H35.8014C30.5215 21.4611 26.2402 17.1814 26.2402 11.9C26.2402 6.61855 30.52 2.33881 35.8014 2.33881H135.287C140.567 2.33881 144.848 6.61855 144.848 11.9C144.848 17.1814 140.568 21.4611 135.287 21.4611H135.289Z" fill="#61A039"/>
<path d="M41.5757 83.6258H9.03221C5.33599 83.6258 2.34033 80.6301 2.34033 76.9339C2.34033 73.2377 5.33599 70.242 9.03221 70.242H41.5757C45.2719 70.242 48.2676 73.2377 48.2676 76.9339C48.2676 80.6301 45.2719 83.6258 41.5757 83.6258Z" fill="#61A039"/>
<path d="M180.252 135.069C181.255 137.655 183.5 139.52 186.489 139.342C189.391 139.169 192.248 137.128 192.971 134.31C198.044 114.54 201.153 97.301 204.159 80.6309L204.165 80.5974C206.113 69.7943 208.1 58.779 210.644 46.9742C212.602 57.0185 214.588 68.519 216.714 80.832L216.716 80.8455L216.788 81.2596C218.753 92.6393 220.785 104.402 223.071 116.655C223.617 119.582 226.031 121.796 228.994 122.087C229.215 122.109 229.435 122.12 229.653 122.12C232.365 122.12 234.838 120.472 235.863 117.915L249.598 83.6227H277.595C281.291 83.6227 284.287 80.627 284.287 76.9308C284.287 73.2346 281.291 70.2389 277.595 70.2389H245.069C242.334 70.2389 239.873 71.9037 238.856 74.4438L232.109 91.2866C231.36 86.9944 230.629 82.7567 229.906 78.5706L229.905 78.5611C225.421 52.5871 221.549 30.1547 217.045 16.4075C216.126 13.5991 213.475 11.7268 210.517 11.8017C207.562 11.8766 205.006 13.8799 204.229 16.732C197.893 39.9734 194.386 59.4187 190.995 78.2242C189.148 88.4688 187.26 98.9318 184.903 110.034L171.137 74.5156C170.138 71.9396 167.66 70.2421 164.897 70.2421H130.641C126.944 70.2421 123.949 73.2377 123.949 76.9339C123.949 80.6301 126.944 83.6258 130.641 83.6258H160.313L180.252 135.069Z" fill="#61A039"/>
</svg>
